<svg height="511pt" viewBox="0 -48 511.96911 511" width="511pt" xmlns="http://www.w3.org/2000/svg"><path d="m31.886719 392.574219c-4.421875 0-8-3.578125-8-8v-168.121094c0-4.425781 3.578125-8 8-8 4.425781 0 8 3.574219 8 8v168.121094c0 4.414062-3.574219 8-8 8zm0 0"/><path d="m343.839844 416.4375h-287.953125c-4.421875 0-8-3.578125-8-8 0-4.425781 3.578125-8 8-8h287.953125c4.425781 0 8 3.574219 8 8 0 4.421875-3.574219 8-8 8zm0 0"/><path d="m279.9375 16.484375h-120c-4.425781 0-8-3.574219-8-8 0-4.421875 3.574219-8 8-8h120c4.421875 0 8 3.578125 8 8 0 4.425781-3.578125 8-8 8zm0 0"/><path d="m151.9375 24.484375c-4.425781 0-8-3.574219-8-8 0-8.824219 7.175781-16 16-16 4.421875 0 8 3.578125 8 8 0 4.425781-3.578125 8-8 8 0 4.425781-3.578125 8-8 8zm0 0"/><path d="m287.9375 24.484375c-4.425781 0-8-3.574219-8-8v-.015625c-4.425781 0-8-3.566406-8-7.992188 0-4.414062 3.574219-7.992187 8-7.992187 8.824219 0 16 7.175781 16 16 0 4.425781-3.578125 8-8 8zm0 0"/><path d="m287.9375 48.484375c-4.425781 0-8-3.574219-8-8v-24c0-4.421875 3.574219-8 8-8 4.421875 0 8 3.578125 8 8v24c0 4.425781-3.578125 8-8 8zm0 0"/><path d="m151.9375 48.484375c-4.425781 0-8-3.574219-8-8v-24c0-4.421875 3.574219-8 8-8 4.421875 0 8 3.578125 8 8v24c0 4.425781-3.578125 8-8 8zm0 0"/><path d="m287.9375 48.484375h-136c-4.425781 0-8-3.574219-8-8 0-4.421875 3.574219-8 8-8h136c4.421875 0 8 3.578125 8 8 0 4.425781-3.578125 8-8 8zm0 0"/><path d="m287.9375 80.484375c-4.425781 0-8-3.574219-8-8v-32c0-4.421875 3.574219-8 8-8 4.421875 0 8 3.578125 8 8v32c0 4.425781-3.578125 8-8 8zm0 0"/><path d="m255.9375 80.484375c-4.425781 0-8-3.574219-8-8v-32c0-4.421875 3.574219-8 8-8 4.421875 0 8 3.578125 8 8v32c0 4.425781-3.578125 8-8 8zm0 0"/><path d="m183.9375 80.484375c-4.425781 0-8-3.574219-8-8v-32c0-4.421875 3.574219-8 8-8 4.421875 0 8 3.578125 8 8v32c0 4.425781-3.578125 8-8 8zm0 0"/><path d="m151.9375 80.484375c-4.425781 0-8-3.574219-8-8v-32c0-4.421875 3.574219-8 8-8 4.421875 0 8 3.578125 8 8v32c0 4.425781-3.578125 8-8 8zm0 0"/><path d="m375.871094 56.484375h-56c-4.421875 0-8-3.574219-8-8 0-4.421875 3.578125-8 8-8h56c4.425781 0 8 3.578125 8 8 0 4.425781-3.574219 8-8 8zm0 0"/><path d="m319.871094 80.484375c-4.421875 0-8-3.574219-8-8v-24c0-4.421875 3.578125-8 8-8 4.425781 0 8 3.578125 8 8v24c0 4.425781-3.574219 8-8 8zm0 0"/><path d="m120 56.484375h-56c-4.425781 0-8-3.574219-8-8 0-4.421875 3.574219-8 8-8h56c4.425781 0 8 3.578125 8 8 0 4.425781-3.574219 8-8 8zm0 0"/><path d="m64 80.484375c-4.425781 0-8-3.574219-8-8v-24c0-4.421875 3.574219-8 8-8s8 3.578125 8 8v24c0 4.425781-3.574219 8-8 8zm0 0"/><path d="m120.0625 80.484375c-4.421875 0-8-3.574219-8-8v-24c0-4.421875 3.578125-8 8-8 4.425781 0 8 3.578125 8 8v24c0 4.425781-3.574219 8-8 8zm0 0"/><path d="m247.9375 272.460938h-56c-4.425781 0-8-3.578126-8-8v-96c0-4.425782 3.574219-8 8-8h56c4.421875 0 8 3.574218 8 8v96c0 4.421874-3.578125 8-8 8zm-48-16h40v-80h-40zm0 0"/><path d="m219.9375 240.460938c-4.425781 0-8-3.578126-8-8v-32c0-4.425782 3.574219-8 8-8 4.421875 0 8 3.574218 8 8v32c0 4.421874-3.578125 8-8 8zm0 0"/><path d="m431.871094 224.460938c-4.421875 0-8-3.578126-8-8v-103.976563c0-4.421875 3.578125-8 8-8 4.425781 0 8 3.578125 8 8v103.976563c0 4.421874-3.574219 8-8 8zm0 0"/><path d="m431.871094 224.460938h-184.101563c-4.425781 0-8-3.578126-8-8 0-4.425782 3.574219-8 8-8h184.109375c4.425782 0 8 3.574218 8 8 0 4.421874-3.582031 8-8.007812 8zm0 0"/><path d="m375.871094 80.484375c-4.421875 0-8-3.574219-8-8v-24c0-4.421875 3.578125-8 8-8 4.425781 0 8 3.578125 8 8v24c0 4.425781-3.574219 8-8 8zm0 0"/><path d="m431.871094 120.484375c-4.421875 0-8-3.574219-8-8 0-17.648437-14.351563-32-32-32-4.421875 0-8-3.574219-8-8 0-4.421875 3.578125-8 8-8 26.472656 0 48 21.527344 48 48 0 4.425781-3.574219 8-8 8zm0 0"/><path d="m8 224.460938c-4.425781 0-8-3.578126-8-8v-103.976563c0-4.421875 3.574219-8 8-8s8 3.578125 8 8v103.976563c0 4.421874-3.574219 8-8 8zm0 0"/><path d="m192.097656 224.460938h-184.097656c-4.425781 0-8-3.578126-8-8 0-4.425782 3.574219-8 8-8h184.097656c4.421875 0 8 3.574218 8 8 0 4.421874-3.585937 8-8 8zm0 0"/><path d="m8 120.484375c-4.425781 0-8-3.574219-8-8 0-26.472656 21.527344-48 48-48 4.425781 0 8 3.578125 8 8 0 4.425781-3.574219 8-8 8-17.648438 0-32 14.351563-32 32 0 4.425781-3.574219 8-8 8zm0 0"/><path d="m55.886719 416.4375c-17.648438 0-32-14.351562-32-32 0-4.425781 3.578125-8 8-8 4.425781 0 8 3.574219 8 8 0 8.824219 7.175781 16 16 16 4.425781 0 8 3.574219 8 8 0 4.421875-3.574219 8-8 8zm0 0"/><path d="m391.871094 80.484375h-343.871094c-4.425781 0-8-3.574219-8-8 0-4.421875 3.574219-8 8-8h343.871094c4.425781 0 8 3.578125 8 8 0 4.425781-3.574219 8-8 8zm0 0"/><path d="m479.96875 272.378906h-127.96875c-4.425781 0-8-3.574218-8-8 0-4.421875 3.574219-8 8-8h127.96875c4.421875 0 8 3.578125 8 8 0 4.425782-3.578125 8-8 8zm0 0"/><path d="m415.984375 416.40625c-4.425781 0-8-3.578125-8-8v-168.027344c0-4.421875 3.574219-8 8-8 4.421875 0 8 3.578125 8 8v168.027344c0 4.421875-3.578125 8-8 8zm0 0"/><path d="m463.96875 416.40625h-95.96875c-4.425781 0-8-3.578125-8-8 0-4.425781 3.574219-8 8-8h95.96875c4.421875 0 8 3.574219 8 8 0 4.421875-3.578125 8-8 8zm0 0"/><path d="m352 376.398438c-17.648438 0-32-14.355469-32-32 0-4.425782 3.574219-8 8-8s8 3.574218 8 8c0 8.820312 7.175781 16 16 16s16-7.179688 16-16c0-4.425782 3.574219-8 8-8s8 3.574218 8 8c0 17.644531-14.351562 32-32 32zm0 0"/><path d="m376 352.398438h-48c-4.425781 0-8-3.578126-8-8 0-4.425782 3.574219-8 8-8h48c4.425781 0 8 3.574218 8 8 0 4.421874-3.574219 8-8 8zm0 0"/><path d="m328 352.398438c-.761719 0-1.527344-.113282-2.296875-.335938-4.230469-1.273438-6.632813-5.730469-5.367187-9.960938l24-80.015624c1.265624-4.234376 5.703124-6.625 9.960937-5.371094 4.230469 1.273437 6.632813 5.730468 5.367187 9.960937l-24 80.015625c-1.039062 3.472656-4.214843 5.707032-7.664062 5.707032zm0 0"/><path d="m376 352.398438c-3.449219 0-6.625-2.234376-7.664062-5.707032l-24-80.015625c-1.265626-4.230469 1.136718-8.6875 5.367187-9.960937 4.234375-1.253906 8.695313 1.136718 9.960937 5.371094l24 80.015624c1.265626 4.230469-1.136718 8.6875-5.367187 9.960938-.769531.230469-1.535156.335938-2.296875.335938zm0 0"/><path d="m479.96875 376.398438c-17.648438 0-32-14.355469-32-32 0-4.425782 3.574219-8 8-8 4.421875 0 8 3.574218 8 8 0 8.820312 7.175781 16 16 16s16-7.179688 16-16c0-4.425782 3.574219-8 8-8 4.421875 0 8 3.574218 8 8 0 17.644531-14.351562 32-32 32zm0 0"/><path d="m503.96875 352.398438h-48c-4.425781 0-8-3.578126-8-8 0-4.425782 3.574219-8 8-8h48c4.421875 0 8 3.574218 8 8 0 4.421874-3.578125 8-8 8zm0 0"/><path d="m455.96875 352.398438c-.761719 0-1.527344-.113282-2.296875-.335938-4.230469-1.273438-6.632813-5.730469-5.367187-9.960938l24-80.015624c1.261718-4.234376 5.71875-6.625 9.960937-5.371094 4.230469 1.273437 6.628906 5.730468 5.367187 9.960937l-24 80.015625c-1.039062 3.472656-4.21875 5.707032-7.664062 5.707032zm0 0"/><path d="m503.96875 352.398438c-3.449219 0-6.625-2.234376-7.664062-5.707032l-24-80.015625c-1.265626-4.230469 1.136718-8.6875 5.367187-9.960937 4.25-1.253906 8.6875 1.136718 9.960937 5.371094l24 80.015624c1.261719 4.230469-1.136718 8.6875-5.367187 9.960938-.769531.230469-1.539063.335938-2.296875.335938zm0 0"/></svg>