<?xml version="1.0" encoding="iso-8859-1"?>
<!-- Generator: Adobe Illustrator 19.0.0, SVG Export Plug-In . SVG Version: 6.00 Build 0)  -->
<svg xmlns="http://www.w3.org/2000/svg" xmlns:xlink="http://www.w3.org/1999/xlink" version="1.1" id="Layer_1" x="0px" y="0px" viewBox="0 0 509.21 509.21" style="enable-background:new 0 0 509.21 509.21;" xml:space="preserve" width="512" height="512">
<g>
	<path d="M434.638,74.572C386.549,26.483,322.612,0,254.605,0S122.661,26.483,74.572,74.572C26.483,122.661,0,186.598,0,254.605   s26.483,131.944,74.572,180.033c48.088,48.089,112.025,74.572,180.033,74.572s131.944-26.483,180.033-74.572   c48.089-48.088,74.572-112.025,74.572-180.033S482.727,122.661,434.638,74.572z M269.605,478.697v-44.491h-30v44.491   C127.686,471.28,37.93,381.524,30.513,269.605h44.491v-30H30.513C37.93,127.686,127.686,37.93,239.605,30.513v44.491h30V30.513   c111.919,7.417,201.675,97.173,209.092,209.092h-44.491v30h44.491C471.28,381.524,381.524,471.28,269.605,478.697z"/>
	<polygon points="268.605,149.605 238.605,149.605 238.605,260.818 366.978,389.19 388.19,367.978 268.605,248.392  "/>
</g>















</svg>
