<?xml version="1.0" standalone="no"?>
<!DOCTYPE svg PUBLIC "-//W3C//DTD SVG 20010904//EN"
 "http://www.w3.org/TR/2001/REC-SVG-20010904/DTD/svg10.dtd">
<svg version="1.0" xmlns="http://www.w3.org/2000/svg"
 width="940.000000pt" height="940.000000pt" viewBox="0 0 940.000000 940.000000"
 preserveAspectRatio="xMidYMid meet">
<metadata>
Created by potrace 1.15, written by Peter Selinger 2001-2017
</metadata>
<g transform="translate(0.000000,940.000000) scale(0.100000,-0.100000)"
fill="#000000" stroke="none">
<path d="M8807 9309 c-111 -26 -210 -108 -264 -217 -36 -72 -38 -81 -38 -172
0 -91 2 -100 38 -172 43 -88 107 -152 195 -195 51 -25 67 -28 162 -28 100 0
109 2 175 34 208 103 288 336 185 540 -30 60 -115 147 -171 176 -79 41 -193
55 -282 34z m230 -84 c115 -52 184 -158 191 -290 5 -112 -21 -180 -99 -256
-70 -69 -132 -94 -234 -93 -234 1 -390 255 -290 471 78 170 265 243 432 168z"/>
<path d="M8730 8923 l0 -233 35 0 35 0 0 95 0 95 89 0 c82 0 91 -2 105 -22 9
-13 16 -44 16 -73 0 -86 6 -95 56 -95 24 0 44 2 44 4 0 2 -7 20 -15 39 -8 20
-15 58 -15 85 0 34 -6 57 -20 75 l-20 26 25 25 c21 21 25 35 25 82 0 50 -4 60
-33 89 -37 37 -81 45 -234 43 l-93 -2 0 -233z m267 141 c20 -20 24 -31 19 -57
-9 -48 -29 -57 -128 -57 l-88 0 0 70 0 70 85 0 c79 0 88 -2 112 -26z"/>
<path d="M4660 9220 c0 -5 9 -10 20 -10 31 0 25 -30 -19 -91 -111 -155 -127
-279 -35 -279 35 0 74 39 105 103 l28 59 10 -38 c24 -93 24 -91 -1 -99 l-23
-7 25 -8 c29 -9 140 -13 140 -4 0 3 -9 13 -19 22 -13 11 -35 73 -63 180 l-45
162 24 0 c12 0 23 5 23 10 0 6 -35 10 -85 10 -50 0 -85 -4 -85 -10z m74 -160
c1 -88 -98 -197 -119 -131 -8 25 28 118 67 170 28 39 32 41 41 25 6 -10 11
-39 11 -64z"/>
<path d="M4373 9213 c-42 -4 -62 -23 -24 -23 17 0 20 -9 23 -65 l3 -65 -31 -6
c-17 -3 -44 -4 -60 -2 -28 3 -29 5 -32 66 -2 51 0 62 13 62 8 0 15 7 15 16 0
11 -5 14 -16 10 -9 -3 -45 -6 -80 -6 -51 0 -64 -3 -64 -16 0 -11 6 -13 19 -9
26 8 28 -4 36 -155 3 -69 8 -137 11 -152 5 -25 3 -28 -20 -28 -14 0 -26 -4
-26 -10 0 -11 75 -13 133 -4 38 7 52 24 18 24 -16 0 -20 10 -26 63 -12 106 -9
112 56 115 l56 3 6 -68 c11 -107 10 -113 -15 -113 -14 0 -18 -4 -12 -9 11 -12
164 -2 164 10 0 5 -11 9 -24 9 -23 0 -24 3 -30 113 -4 61 -9 138 -13 170 -5
53 -4 57 16 57 11 0 21 5 21 10 0 10 -31 10 -117 3z"/>
<path d="M5001 9201 c-8 -5 -14 -25 -14 -45 0 -48 47 -98 111 -118 l46 -15
-47 -7 c-70 -11 -137 -77 -137 -136 0 -11 -7 -20 -15 -20 -23 0 -18 -17 8 -24
36 -9 117 -7 117 4 0 6 -4 10 -10 10 -15 0 -12 42 5 83 16 40 58 77 86 77 16
0 19 -8 19 -54 0 -76 -10 -116 -28 -116 -10 0 -12 -3 -6 -9 13 -12 154 -23
154 -12 0 5 -10 11 -21 14 -21 6 -21 9 -15 139 9 175 13 198 37 198 11 0 19 4
19 9 0 18 -286 38 -309 22z"/>
<path d="M3952 9165 c-30 -7 -107 -21 -173 -31 -66 -10 -119 -23 -119 -29 0
-6 9 -28 20 -50 11 -22 20 -45 20 -53 0 -7 6 -12 12 -10 7 3 16 26 20 53 7 51
19 65 55 65 24 0 22 7 57 -189 23 -129 23 -134 5 -138 -24 -7 -25 -23 -1 -23
45 2 147 26 143 35 -2 6 -12 9 -22 7 -19 -3 -18 -7 -49 173 -12 66 -23 127
-26 136 -3 11 3 19 20 23 36 9 55 -2 77 -45 21 -42 39 -51 39 -20 0 10 3 39 6
65 8 53 7 53 -84 31z"/>
<path d="M3422 9045 c-93 -29 -133 -107 -107 -207 11 -42 25 -62 86 -120 l73
-70 37 11 c49 15 116 91 124 140 4 20 8 47 11 60 5 26 9 26 -88 0 -40 -10 -48
-23 -22 -33 23 -9 15 -108 -11 -136 -23 -25 -45 -26 -45 -2 0 10 -19 56 -41
103 -52 105 -64 193 -31 223 30 26 64 14 88 -29 16 -31 17 -37 4 -45 -29 -18
-2 -19 60 -2 35 9 65 23 68 31 3 8 0 11 -7 7 -6 -4 -23 6 -38 25 -26 30 -78
60 -105 58 -7 0 -32 -6 -56 -14z"/>
<path d="M6100 8980 c0 -5 9 -10 20 -10 11 0 20 -3 20 -7 0 -6 -82 -262 -96
-296 -3 -9 -17 -17 -30 -17 -13 0 -24 -4 -24 -8 0 -12 144 -56 161 -49 10 4 7
8 -8 12 -13 4 -23 9 -23 12 0 14 94 299 100 307 11 11 55 0 74 -20 9 -9 16
-32 16 -54 0 -21 4 -41 9 -44 12 -8 74 90 66 104 -3 5 -14 10 -24 10 -10 0
-67 16 -127 35 -117 37 -134 40 -134 25z"/>
<path d="M3040 8914 c-72 -28 -102 -50 -58 -42 39 7 42 -13 18 -130 -23 -115
-24 -124 -10 -174 37 -132 150 -59 150 95 l0 39 41 -53 c39 -49 41 -53 24 -65
-35 -26 -8 -25 64 2 66 24 96 49 52 42 -15 -2 -46 31 -127 136 -94 123 -105
141 -90 151 17 13 21 26 9 24 -5 0 -37 -12 -73 -25z m66 -231 c-5 -54 -24
-104 -41 -110 -5 -1 -17 2 -25 7 -19 12 -20 170 -1 214 l12 30 30 -45 c27 -39
30 -50 25 -96z"/>
<path d="M6450 8862 c0 -6 8 -15 17 -21 16 -8 15 -16 -17 -88 -98 -224 -98
-224 -125 -217 -50 12 -23 -13 46 -44 68 -30 110 -34 74 -8 -15 11 -15 15 0
53 15 37 26 46 98 81 45 23 83 40 84 38 3 -3 -53 -132 -79 -184 -8 -15 -18
-22 -30 -19 -10 3 -18 0 -18 -7 0 -12 141 -78 150 -69 3 2 -5 12 -16 21 l-21
17 66 148 c60 135 68 148 89 144 12 -2 25 -1 27 3 5 7 -126 70 -145 70 -15 0
-12 -11 6 -24 31 -23 -1 -59 -92 -104 -46 -23 -84 -40 -84 -38 0 2 18 44 40
92 32 74 43 88 60 86 41 -6 18 16 -42 43 -89 39 -88 38 -88 27z"/>
<path d="M2658 8734 c-38 -19 -68 -39 -68 -45 0 -6 7 -8 15 -5 8 3 21 9 29 12
20 8 26 -27 26 -163 0 -89 4 -134 16 -163 9 -22 20 -40 25 -40 15 0 79 33 79
41 0 21 -15 41 -36 49 -13 5 -30 23 -39 41 -19 37 -33 173 -18 182 6 4 25 -14
42 -39 18 -25 57 -71 87 -104 49 -52 53 -60 37 -69 -10 -5 -14 -13 -10 -17 9
-9 147 56 147 69 0 5 -11 6 -24 3 -21 -5 -35 6 -106 86 -103 119 -139 170
-122 175 6 3 12 9 12 14 0 16 -23 9 -92 -27z"/>
<path d="M6925 8631 c-3 -6 4 -15 15 -21 11 -6 20 -17 20 -24 0 -8 -44 -42
-97 -76 -109 -69 -148 -102 -169 -142 -13 -25 -12 -27 22 -47 19 -12 39 -21
44 -21 16 0 31 38 25 63 -9 33 29 83 98 130 32 22 60 37 62 35 3 -2 -8 -45
-25 -94 -16 -49 -34 -108 -40 -131 -8 -34 -14 -40 -30 -36 -11 3 -20 3 -20 0
0 -11 134 -86 143 -80 5 3 2 10 -7 15 -27 15 -18 63 46 254 26 78 33 91 49 87
31 -8 22 12 -13 30 -18 8 -52 27 -75 42 -24 14 -44 21 -48 16z"/>
<path d="M2405 8600 c-3 -5 -51 -37 -105 -71 -55 -33 -100 -65 -100 -70 0 -12
7 -11 30 1 16 8 29 -7 105 -127 78 -124 94 -163 65 -163 -5 0 -10 -4 -10 -10
0 -19 19 -10 135 61 129 80 133 87 87 153 -41 59 -52 63 -115 43 -83 -26 -103
-23 -130 21 -50 79 -50 80 -18 97 39 20 42 19 86 -10 20 -15 39 -24 42 -21 3
2 -1 22 -7 43 -7 21 -14 44 -16 51 -4 14 -40 16 -49 2z"/>
<path d="M7200 8450 c0 -5 7 -13 16 -18 15 -8 4 -28 -76 -141 -50 -72 -96
-134 -101 -137 -6 -3 -16 -1 -24 6 -7 6 -16 7 -19 2 -5 -8 194 -155 227 -168
11 -4 29 13 61 56 43 59 56 90 38 90 -13 0 -72 62 -88 92 -14 28 -13 31 22 81
21 29 39 53 40 55 1 2 11 -1 23 -7 11 -6 22 -7 25 -3 5 8 -122 102 -137 102
-4 0 -7 -4 -7 -10z"/>
<path d="M2000 8323 c-32 -113 -25 -187 26 -243 38 -41 93 -60 179 -60 39 0
44 3 54 32 6 17 14 62 17 99 6 61 4 72 -19 112 -30 50 -67 71 -142 81 -27 4
-62 9 -77 12 -24 5 -28 1 -38 -33z m231 -116 c17 -15 20 -26 16 -59 -3 -22 -7
-42 -10 -44 -9 -9 -171 35 -195 53 -32 24 -46 62 -33 95 l10 25 95 -26 c53
-14 105 -34 117 -44z"/>
<path d="M7566 8183 c-3 -4 4 -17 16 -30 20 -22 21 -24 3 -43 -9 -10 -34 -25
-54 -31 -56 -18 -142 -64 -185 -98 -37 -30 -40 -30 -58 -15 -10 10 -20 15 -22
13 -13 -14 -54 -108 -49 -112 3 -4 22 3 43 15 32 19 41 20 67 9 17 -7 54 -34
83 -61 55 -51 57 -58 35 -127 -10 -31 6 -29 54 5 40 27 50 45 31 57 -18 11
-10 42 31 122 75 144 110 195 124 183 7 -6 16 -7 19 -2 4 7 -33 43 -110 104
-12 10 -24 14 -28 11z m-16 -135 c0 -2 -24 -51 -53 -110 l-53 -106 -47 40
c-26 22 -47 47 -47 55 0 9 12 26 28 40 43 38 173 99 172 81z"/>
<path d="M7820 7956 c0 -8 5 -18 11 -22 12 -7 -96 -122 -184 -196 -39 -33 -50
-38 -62 -28 -9 7 -18 10 -21 7 -4 -3 18 -33 47 -66 32 -35 58 -56 63 -51 6 6
5 15 -2 23 -9 11 -5 20 18 42 31 30 84 43 174 44 l50 1 -30 -31 c-16 -17 -55
-53 -87 -81 -46 -40 -60 -48 -71 -39 -8 7 -17 8 -20 3 -3 -5 21 -35 53 -66 32
-32 61 -54 65 -48 3 5 -2 16 -11 23 -14 12 -2 27 108 131 110 104 126 115 140
102 8 -8 19 -11 23 -7 9 9 -105 124 -116 117 -5 -3 -3 -12 3 -20 10 -12 8 -19
-8 -35 -15 -16 -40 -22 -109 -29 -78 -7 -108 -6 -93 3 3 1 35 31 71 66 54 52
70 62 81 53 8 -7 17 -9 20 -6 7 7 -93 124 -105 124 -5 0 -8 -6 -8 -14z"/>
<path d="M1223 7582 c-108 -132 -117 -146 -104 -170 6 -11 24 -25 41 -32 38
-16 98 -1 147 36 l32 24 -19 -42 c-28 -62 -26 -107 10 -159 16 -24 30 -53 30
-64 1 -16 10 -9 45 30 44 49 58 82 31 72 -19 -7 -74 52 -86 91 -8 29 3 92 16
92 3 0 33 -24 68 -54 42 -35 61 -57 54 -64 -6 -6 -6 -12 0 -16 10 -6 102 97
102 115 0 14 -12 11 -25 -8 -11 -15 -27 -5 -141 87 -71 57 -131 105 -133 107
-2 2 4 11 13 22 10 10 13 22 8 25 -5 3 -45 -38 -89 -92z"/>
<path d="M8101 7584 c-25 -32 -28 -98 -6 -151 20 -48 20 -48 -20 -18 -46 36
-103 43 -163 19 -26 -10 -53 -17 -59 -16 -22 5 -14 -11 28 -61 22 -26 45 -45
50 -41 5 3 7 9 4 14 -10 16 57 53 104 57 34 3 52 -1 69 -14 l23 -19 -65 -52
c-41 -32 -71 -50 -80 -46 -9 3 -16 2 -16 -3 0 -10 78 -107 91 -111 12 -5 12
21 -1 34 -8 8 57 66 208 182 42 33 44 33 63 16 42 -38 17 12 -43 85 -129 160
-149 173 -187 125z"/>
<path d="M934 7210 c-26 -39 -44 -74 -40 -78 4 -4 14 2 22 12 20 28 39 8 85
-92 66 -144 130 -203 183 -169 43 29 36 99 -18 175 -14 20 -24 37 -22 39 1 2
30 -7 64 -18 55 -18 61 -23 52 -39 -6 -11 -6 -21 -1 -24 9 -6 91 116 91 135 0
14 -11 11 -24 -6 -10 -13 -33 -8 -174 34 -90 27 -166 52 -169 55 -3 3 0 12 6
20 8 9 8 16 2 20 -6 4 -31 -25 -57 -64z m117 -85 c46 -16 75 -49 99 -116 28
-77 -19 -94 -74 -26 -35 42 -75 120 -76 145 0 15 -3 15 51 -3z"/>
<path d="M775 6950 c-20 -39 -14 -59 43 -143 25 -37 42 -70 38 -74 -4 -4 -33
7 -64 24 -40 23 -57 38 -57 52 -1 37 -19 20 -56 -50 -23 -43 -32 -69 -24 -69
7 0 16 7 19 16 5 13 33 2 153 -62 82 -42 149 -78 151 -80 2 -1 -2 -12 -8 -24
-10 -18 -9 -21 2 -18 7 2 28 32 46 67 33 61 36 85 8 62 -10 -9 -29 -3 -85 26
-39 21 -71 41 -71 44 0 15 57 42 86 41 49 -2 114 -31 107 -48 -3 -8 0 -14 6
-14 13 0 75 119 66 128 -3 4 -10 1 -14 -7 -7 -10 -17 -10 -56 3 -56 19 -98 11
-151 -29 -39 -30 -47 -28 -74 25 -25 49 -25 72 -1 95 20 17 20 18 -8 41 -16
13 -31 24 -35 24 -3 0 -13 -14 -21 -30z"/>
<path d="M720 6582 c0 -5 -20 -9 -45 -9 -81 0 -137 -59 -142 -150 -5 -71 16
-109 79 -149 47 -30 85 -33 202 -19 65 8 69 10 82 41 26 63 10 149 -36 195
-15 16 -30 36 -34 45 -8 21 -7 22 -46 -55 l-32 -64 26 7 c45 11 130 -86 107
-123 -6 -9 -24 -7 -72 8 -35 11 -90 27 -121 36 -100 27 -155 96 -112 139 25
26 94 18 94 -10 0 -30 20 -11 44 42 28 62 31 74 16 74 -5 0 -10 -4 -10 -8z"/>
<path d="M8804 6566 c8 -33 -12 -38 -89 -26 -95 16 -195 12 -235 -8 -30 -14
-35 -22 -35 -51 0 -54 38 -76 132 -76 l75 0 -53 -48 c-52 -46 -53 -47 -65 -26
-6 12 -14 17 -17 11 -4 -5 9 -43 28 -83 33 -71 37 -75 39 -37 1 10 60 69 131
132 114 100 132 112 142 98 29 -36 24 3 -7 68 -33 69 -58 93 -46 46z m-55 -60
c12 -8 -25 -43 -67 -65 -30 -16 -147 -5 -164 16 -15 19 0 45 33 55 28 8 182 4
198 -6z"/>
<path d="M459 6197 c-57 -38 -90 -164 -53 -201 23 -23 36 -29 172 -76 115 -40
123 -45 119 -67 -2 -13 1 -23 7 -23 6 0 31 58 56 130 50 144 49 154 -11 176
-64 23 -85 18 -118 -29 -40 -58 -60 -75 -71 -58 -4 8 -2 25 6 40 20 37 17 66
-8 95 -34 36 -59 40 -99 13z"/>
<path d="M8954 6176 c11 -43 -13 -51 -114 -36 -53 8 -119 10 -160 6 -59 -5
-70 -4 -70 9 0 28 -27 26 -74 -5 -49 -33 -52 -52 -8 -49 15 1 35 1 44 1 33 -3
93 -157 77 -200 -5 -12 -20 -27 -34 -34 -14 -6 -25 -17 -25 -25 0 -14 24 -16
83 -6 34 5 38 9 33 28 -5 18 2 29 27 48 36 27 247 147 260 147 4 0 7 -8 7 -17
0 -11 3 -14 10 -7 12 12 -36 164 -52 164 -6 0 -8 -10 -4 -24z m-87 -70 c4 -5
0 -13 -11 -20 -10 -6 -55 -34 -99 -63 -45 -28 -84 -50 -88 -48 -3 3 -14 30
-24 61 -17 56 -17 58 1 71 14 11 43 14 116 11 53 -2 101 -7 105 -12z"/>
<path d="M952 6023 c-11 -22 -78 -236 -87 -278 -4 -16 -13 -51 -21 -76 -8 -26
-16 -62 -18 -80 -2 -19 -6 -41 -10 -49 -9 -25 -54 -288 -68 -400 -18 -143 -17
-730 0 -870 29 -228 95 -562 113 -568 5 -2 7 -8 4 -12 -3 -5 14 -72 37 -150
l43 -140 522 0 523 0 0 693 c0 668 1 695 21 767 31 113 113 269 204 386 48 63
139 179 145 184 3 3 28 32 55 65 66 78 155 175 339 368 83 88 152 163 154 168
2 5 -405 9 -972 9 -921 0 -976 -1 -984 -17z"/>
<path d="M3360 5585 l0 -455 -34 0 c-43 0 -149 -34 -202 -65 -84 -49 -162
-159 -193 -271 -38 -137 28 -335 141 -425 44 -34 128 -83 128 -74 0 4 6 3 13
-3 7 -6 43 -17 80 -24 l67 -13 0 -427 0 -428 60 0 60 0 0 1320 0 1320 -60 0
-60 0 0 -455z"/>
<path d="M4560 5571 l0 -469 -53 -26 c-139 -67 -227 -214 -228 -379 -2 -188
113 -344 299 -406 205 -69 435 39 522 246 84 201 -5 445 -197 540 l-53 25 0
469 0 469 -145 0 -145 0 0 -469z"/>
<path d="M5930 4720 l0 -1320 60 0 60 0 2 433 c3 361 5 432 17 429 27 -6 122
20 180 49 80 40 154 117 198 207 34 67 37 80 37 165 1 108 -10 150 -62 236
-68 113 -191 192 -322 208 l-50 6 0 453 0 454 -60 0 -60 0 0 -1320z"/>
<path d="M6566 5957 c43 -45 120 -125 170 -177 51 -52 105 -111 120 -130 16
-19 52 -60 80 -90 109 -116 269 -320 341 -435 54 -86 101 -187 122 -266 20
-73 21 -97 21 -765 0 -380 2 -693 4 -695 2 -2 238 -3 523 -1 l518 2 20 68 c11
37 20 72 20 77 0 6 4 13 8 16 12 9 78 282 73 302 -2 9 -1 15 3 13 9 -6 34 123
55 274 56 402 45 903 -28 1288 -26 137 -90 386 -127 493 -40 116 -39 115 -49
99 -7 -10 -10 -11 -10 -3 0 10 -206 13 -972 13 l-971 0 79 -83z"/>
<path d="M440 5833 c-12 -4 -126 -73 -149 -90 -9 -6 45 -108 73 -141 61 -70
140 -83 223 -38 27 15 62 39 77 53 l27 25 -32 56 c-39 71 -75 111 -116 128
-33 14 -75 17 -103 7z m155 -88 c42 -41 33 -56 -63 -103 -48 -23 -95 -42 -104
-42 -23 0 -78 48 -78 68 0 20 160 102 197 102 13 0 35 -11 48 -25z"/>
<path d="M8860 5809 c-127 -35 -136 -35 -145 -6 -4 14 -8 17 -12 9 -7 -17 45
-241 63 -269 13 -21 15 -21 71 -6 32 8 62 19 67 24 5 4 10 32 11 61 3 75 13
102 31 87 8 -6 14 -22 14 -34 0 -54 65 -98 115 -79 20 8 45 56 45 87 0 32 -29
118 -48 140 -22 25 -87 21 -212 -14z"/>
<path d="M8930 5479 c-51 -20 -148 -143 -137 -173 3 -7 36 -35 73 -61 79 -57
136 -68 193 -38 38 20 129 128 130 155 1 21 -71 85 -124 109 -44 20 -96 23
-135 8z m179 -68 c7 -13 -6 -34 -61 -94 -59 -65 -75 -77 -102 -77 -34 0 -76
24 -76 43 0 21 129 156 153 159 31 5 76 -11 86 -31z"/>
<path d="M600 5442 c0 -16 -14 -20 -107 -30 -154 -17 -233 -16 -233 3 0 26
-18 16 -24 -12 -14 -72 -18 -143 -8 -143 6 0 12 10 14 23 5 33 30 24 123 -43
104 -75 152 -100 192 -100 28 0 33 4 33 23 0 12 3 32 6 43 5 17 0 22 -23 27
-15 3 -32 1 -37 -4 -29 -28 -155 12 -205 65 l-22 23 103 6 c57 4 121 10 142
14 34 5 38 4 33 -10 -4 -11 -1 -17 7 -17 9 0 16 19 20 58 4 31 9 65 12 75 4
11 0 17 -10 17 -9 0 -16 -8 -16 -18z"/>
<path d="M9180 5127 c0 -23 -3 -24 -147 -35 -190 -16 -183 -16 -183 8 0 11 -6
20 -13 20 -13 0 -13 -19 -1 -117 5 -40 24 -62 24 -28 0 16 17 21 108 30 63 6
64 6 57 -17 -13 -42 -34 -66 -67 -76 -62 -19 -88 -23 -88 -12 0 5 -6 10 -13
10 -10 0 -13 -14 -10 -57 5 -69 9 -83 22 -83 6 0 8 6 5 13 -3 9 11 17 44 26
59 15 96 50 114 109 7 23 17 42 22 42 4 0 30 -12 57 -27 45 -24 49 -29 49 -63
0 -36 2 -38 35 -42 19 -2 35 -2 36 2 0 3 2 15 5 27 6 34 -32 69 -111 102 -38
16 -71 33 -73 39 -3 10 52 22 104 22 19 0 34 -6 38 -15 3 -8 9 -15 14 -15 9 0
7 55 -4 128 -6 37 -24 44 -24 9z"/>
<path d="M555 5100 c-3 -5 -3 -15 0 -20 12 -19 -41 -30 -276 -55 -53 -6 -57
-5 -63 17 -7 22 -7 22 -15 3 -12 -30 -21 -165 -11 -165 5 0 12 10 16 23 4 12
11 25 17 29 14 8 51 -6 90 -36 44 -33 110 -65 170 -83 40 -12 48 -18 44 -34
-3 -10 -1 -21 3 -24 15 -9 120 7 120 19 0 6 -18 18 -39 27 -46 20 -52 40 -41
141 9 78 21 97 71 107 45 9 40 21 -18 43 -56 21 -60 21 -68 8z m-10 -182 c-9
-76 -10 -78 -40 -78 -50 0 -202 81 -190 101 4 5 25 9 48 10 23 1 71 7 107 14
36 7 69 13 73 14 5 0 6 -27 2 -61z"/>
<path d="M8857 4712 c-21 -23 -22 -61 -1 -90 8 -12 45 -37 81 -56 l66 -33 -61
-13 c-71 -15 -78 -14 -74 6 2 8 -4 14 -13 14 -12 0 -15 -15 -15 -80 0 -47 4
-80 10 -80 6 0 10 8 10 19 0 15 26 25 158 60 86 23 165 44 175 47 12 4 17 0
17 -15 0 -12 5 -21 10 -21 6 0 10 35 10 85 0 50 -4 85 -10 85 -5 0 -10 -12
-10 -26 0 -22 -3 -24 -22 -19 -13 4 -54 27 -92 52 -117 78 -206 102 -239 65z
m144 -47 c44 -16 139 -74 139 -86 0 -4 -23 -11 -51 -16 -45 -9 -56 -8 -100 14
-60 30 -94 70 -78 89 15 18 36 18 90 -1z"/>
<path d="M245 4701 c-11 -5 -29 -19 -40 -31 -27 -30 -33 -141 -11 -194 l16
-38 168 3 c167 4 167 4 170 -18 2 -13 8 -23 13 -23 15 0 7 162 -8 168 -8 2
-13 -5 -13 -17 0 -19 -6 -21 -63 -21 -75 0 -113 20 -97 50 18 34 11 70 -19
101 -30 30 -73 37 -116 20z"/>
<path d="M464 4288 c8 -67 12 -78 27 -78 6 0 8 4 4 9 -11 19 12 19 43 0 47
-28 69 -89 33 -89 -11 0 -52 -12 -92 -27 -70 -26 -72 -26 -86 -7 -8 10 -13 30
-11 44 2 20 8 24 27 22 22 -2 23 0 17 35 -3 21 -6 50 -6 66 0 17 -5 27 -15 27
-8 0 -15 -5 -15 -11 0 -6 -9 -22 -20 -36 -24 -31 -26 -95 -5 -137 8 -15 15
-30 15 -32 0 -9 -81 -3 -103 7 -14 6 -30 22 -36 35 -19 42 18 101 54 87 16 -6
18 -2 12 42 -4 26 -7 56 -7 66 0 11 -4 19 -10 19 -5 0 -10 -6 -10 -14 0 -7
-11 -21 -24 -29 -78 -51 -46 -246 48 -291 38 -18 103 -21 138 -6 13 5 43 28
68 51 25 22 58 46 74 51 28 11 28 12 22 71 -7 68 -37 116 -92 149 -19 11 -34
24 -34 29 0 5 -5 9 -11 9 -8 0 -9 -18 -5 -62z"/>
<path d="M9118 4303 c-50 -5 -48 -23 5 -48 37 -18 42 -24 45 -58 3 -38 3 -38
-30 -33 -46 8 -269 36 -285 36 -7 0 -13 11 -13 25 0 34 -17 32 -24 -2 -14 -74
-18 -143 -7 -143 6 0 11 9 11 21 0 18 4 20 38 15 20 -3 95 -13 167 -21 71 -9
131 -17 133 -19 1 -2 0 -16 -4 -30 -7 -30 -24 -41 -77 -51 -44 -9 -48 -22 -9
-35 15 -6 38 -16 52 -24 37 -20 50 -10 50 38 0 39 21 208 36 299 7 41 10 40
-88 30z"/>
<path d="M540 3930 c-45 -11 -60 -34 -60 -94 0 -28 -4 -57 -9 -65 -12 -18 -31
-5 -31 21 0 31 -31 76 -60 86 -49 18 -100 -22 -102 -79 -2 -83 45 -169 92
-169 12 0 82 14 157 31 139 32 142 32 156 -6 3 -5 7 -7 11 -4 6 6 -48 261 -60
280 -6 11 -45 10 -94 -1z"/>
<path d="M8887 3893 c-39 -6 -151 -85 -154 -109 -2 -10 18 -50 45 -89 54 -80
111 -113 174 -101 52 10 167 86 168 111 0 12 -19 49 -42 85 -54 81 -115 113
-191 103z m148 -88 c41 -40 32 -56 -60 -102 -94 -48 -125 -53 -154 -21 -20 20
-37 57 -29 61 192 99 204 102 243 62z"/>
<path d="M8697 3593 c-3 -5 -24 -63 -47 -130 -49 -143 -47 -153 32 -175 62
-18 74 -15 92 21 18 33 62 81 76 81 13 0 13 -37 0 -45 -5 -3 -10 -24 -10 -46
0 -50 27 -79 74 -79 59 0 94 51 110 159 8 55 -27 79 -182 130 -127 41 -134 44
-129 67 4 23 -6 33 -16 17z"/>
<path d="M543 3557 c2 -7 12 -36 21 -64 17 -50 36 -71 36 -39 0 22 71 30 111
13 19 -8 40 -21 48 -30 11 -14 11 -18 -5 -23 -11 -3 -64 -28 -119 -55 -117
-58 -163 -69 -200 -45 -54 36 -13 118 51 102 29 -8 29 -12 -6 89 -15 42 -19
47 -26 30 -4 -11 -16 -26 -26 -33 -71 -52 -58 -200 23 -249 85 -52 172 -34
242 49 23 28 53 62 66 75 22 21 23 26 12 63 -14 47 -80 108 -125 114 -95 14
-108 15 -103 3z"/>
<path d="M960 3358 c0 -6 21 -63 46 -126 198 -494 477 -920 864 -1316 503
-515 1129 -879 1820 -1060 601 -157 1191 -175 1795 -55 164 32 162 32 355 88
220 65 527 189 700 283 414 227 657 406 970 715 344 339 649 778 828 1188 47
108 112 274 112 286 0 5 -204 9 -515 9 l-515 0 0 -505 0 -505 -680 0 -680 0 0
505 0 505 -69 0 -70 0 -4 -572 c-3 -552 -4 -576 -25 -658 -24 -93 -31 -112
-75 -215 -154 -363 -507 -641 -901 -710 -114 -19 -309 -19 -422 0 -500 88
-901 489 -989 989 -12 72 -15 187 -15 627 l0 539 -70 0 -70 0 0 -505 0 -505
-680 0 -680 0 0 505 0 505 -515 0 c-382 0 -515 -3 -515 -12z"/>
<path d="M918 2577 c-49 -42 -61 -93 -33 -147 21 -41 53 -60 103 -60 84 0 137
70 113 151 -23 75 -124 106 -183 56z"/>
<path d="M8349 2585 c-33 -18 -61 -84 -52 -125 3 -17 19 -44 35 -61 25 -24 38
-29 80 -29 41 0 54 5 78 29 78 77 32 202 -73 201 -23 -1 -54 -7 -68 -15z"/>
<path d="M1836 1673 c-3 -4 1 -14 10 -24 19 -21 29 -6 -115 -172 -78 -89 -86
-95 -102 -81 -9 8 -20 11 -23 6 -5 -8 14 -28 86 -91 28 -25 50 -23 30 2 -9 10
0 27 39 73 27 32 54 60 59 62 12 4 30 -40 30 -72 0 -34 -56 -117 -75 -110 -8
3 -15 2 -15 -4 0 -14 103 -101 113 -95 4 3 3 10 -2 17 -7 8 -3 27 14 61 31 60
31 89 2 148 l-24 46 45 16 c64 21 87 19 110 -12 l19 -26 26 19 c31 22 33 35 9
57 -30 27 -65 26 -141 -4 -109 -44 -114 -39 -48 38 36 41 47 49 61 41 35 -20
29 4 -9 38 -63 54 -92 74 -99 67z"/>
<path d="M7495 1631 c-35 -15 -105 -98 -105 -126 0 -37 10 -52 110 -166 80
-93 88 -105 75 -119 -8 -9 -12 -19 -9 -23 9 -9 199 153 213 181 10 20 6 28
-30 67 -44 47 -70 55 -104 31 -11 -7 -37 -18 -58 -24 -32 -9 -37 -8 -37 7 0
10 11 23 24 30 27 15 46 50 46 85 0 49 -68 80 -125 57z"/>
<path d="M7161 1331 c-24 -112 -3 -197 60 -242 29 -20 48 -25 125 -27 l91 -4
6 39 c4 21 7 68 7 104 0 117 -51 162 -196 175 l-82 6 -11 -51z m149 -56 c88
-18 114 -38 112 -90 -2 -46 -9 -57 -30 -46 -9 4 -44 11 -76 15 -77 9 -121 30
-136 67 -18 42 0 82 32 74 13 -2 57 -12 98 -20z"/>
<path d="M2132 1359 c-86 -17 -141 -70 -150 -146 -5 -50 15 -158 33 -173 18
-15 170 15 205 40 60 43 74 95 52 205 l-16 85 -40 -1 c-23 -1 -60 -5 -84 -10z
m54 -106 c4 -49 6 -99 5 -113 -4 -35 -31 -60 -73 -66 l-36 -6 -7 96 c-4 52 -4
107 -1 120 7 28 48 55 83 56 20 0 22 -7 29 -87z"/>
<path d="M7023 1256 c-33 -28 -241 -160 -265 -169 -10 -3 -18 -12 -18 -19 1
-16 89 -93 97 -85 3 4 0 28 -6 54 -12 46 -12 48 15 71 l27 24 90 -138 c79
-120 88 -140 78 -157 -7 -10 -10 -21 -8 -24 9 -8 147 89 141 99 -4 6 -10 6
-17 -1 -6 -6 -16 -11 -23 -11 -6 0 -51 61 -100 136 -83 129 -87 137 -69 150
28 20 53 17 87 -11 28 -24 48 -32 48 -19 0 17 -33 114 -40 119 -4 3 -21 -6
-37 -19z"/>
<path d="M2435 1210 c-3 -5 3 -15 15 -22 11 -7 20 -18 20 -25 0 -7 -33 -31
-72 -54 -131 -75 -169 -101 -196 -136 l-26 -35 25 -19 c49 -39 57 -41 70 -17
7 13 12 34 11 48 -3 35 47 92 114 130 30 18 57 31 58 29 2 -2 -9 -35 -25 -74
-15 -38 -36 -96 -46 -128 -14 -46 -22 -57 -35 -53 -10 2 -20 1 -22 -3 -7 -11
123 -93 136 -85 7 4 5 10 -6 16 -22 12 -21 26 15 132 50 150 77 205 100 199
10 -3 19 -3 19 1 0 12 -149 105 -155 96z"/>
<path d="M2720 1031 c0 -5 9 -13 20 -16 11 -3 20 -12 20 -20 0 -7 -51 -50
-114 -94 -96 -67 -156 -127 -156 -154 0 -6 68 -47 79 -47 13 0 30 47 24 69 -7
29 30 84 85 124 73 52 76 54 68 26 -3 -13 -19 -73 -35 -134 -18 -68 -34 -111
-43 -111 -7 -1 -17 -2 -23 -3 -5 -1 21 -19 60 -41 38 -21 73 -36 79 -33 5 3 1
12 -9 19 -18 13 -18 17 -1 96 10 46 29 118 42 161 20 61 29 77 44 77 36 0 21
17 -49 54 -71 37 -91 43 -91 27z"/>
<path d="M6578 1003 c-73 -38 -85 -53 -40 -50 l27 2 -4 -120 c-4 -135 7 -190
44 -225 21 -20 28 -22 49 -12 45 20 58 53 54 136 l-3 76 50 -51 c45 -44 48
-51 32 -60 -9 -6 -15 -14 -12 -19 3 -5 37 8 75 28 70 37 91 59 46 48 -21 -5
-40 11 -144 121 -92 97 -117 130 -106 136 15 8 19 27 7 27 -5 0 -38 -17 -75
-37z m98 -189 c3 -18 2 -56 -3 -85 -6 -44 -12 -55 -29 -57 -11 -2 -27 4 -34
13 -15 18 -26 159 -16 201 l7 27 34 -33 c19 -19 37 -48 41 -66z"/>
<path d="M6384 902 c-41 -6 -56 -37 -67 -132 -6 -54 -15 -89 -21 -87 -6 2 -21
30 -34 62 -21 53 -22 60 -8 71 9 6 16 14 16 18 0 12 -24 6 -92 -21 -67 -28
-91 -50 -44 -41 23 5 28 -4 85 -144 34 -82 61 -153 61 -158 0 -4 -9 -10 -21
-13 -12 -3 -18 -10 -15 -16 6 -10 51 4 128 39 27 13 30 34 4 24 -9 -4 -24 19
-45 70 -17 41 -31 77 -31 80 0 13 67 5 88 -10 31 -22 65 -90 56 -116 -5 -18
-3 -20 12 -14 11 5 43 17 72 28 49 20 72 43 35 36 -12 -2 -27 11 -46 38 -33
50 -79 74 -141 74 l-46 0 6 43 c11 71 30 97 71 97 20 0 22 4 16 33 -7 39 -12
44 -39 39z"/>
<path d="M2974 870 c-28 -11 -82 -75 -90 -106 -4 -14 -3 -49 1 -77 5 -29 9
-74 10 -101 2 -47 4 -50 46 -72 57 -30 111 -30 176 0 28 13 55 21 59 18 4 -4
5 -1 3 7 -6 16 -118 63 -131 55 -6 -4 -5 -10 3 -15 25 -15 -24 -53 -67 -52
-49 1 -56 11 -39 58 8 22 14 55 15 73 0 46 16 72 45 72 24 0 55 -23 55 -41 0
-5 -7 -9 -15 -9 -33 0 -12 -19 46 -39 54 -20 90 -22 64 -3 -6 4 -15 20 -20 36
-15 43 -58 71 -111 71 -49 0 -51 3 -29 45 30 59 96 79 135 40 19 -19 29 -73
13 -68 -5 2 -9 -1 -11 -6 -3 -9 108 -59 115 -52 3 2 0 12 -5 23 -5 10 -17 36
-28 58 -34 71 -163 117 -240 85z"/>
<path d="M3290 782 c0 -5 9 -13 19 -18 19 -9 17 -16 -33 -164 -52 -150 -55
-155 -80 -152 -14 1 -26 -2 -26 -7 0 -12 159 -65 168 -56 4 4 3 9 -3 12 -36
13 -36 19 11 154 69 199 58 180 94 168 39 -14 60 -44 60 -86 0 -43 13 -42 45
4 30 44 32 73 7 73 -10 0 -72 18 -137 40 -134 45 -125 43 -125 32z"/>
<path d="M5900 688 c-80 -140 -58 -232 70 -295 98 -49 105 -47 147 44 29 64
34 84 31 125 -3 27 -14 62 -25 76 -20 29 -146 101 -175 102 -11 0 -29 -21 -48
-52z m90 -63 c109 -62 120 -72 120 -113 0 -21 -7 -48 -16 -60 -15 -22 -15 -22
-42 -3 -15 10 -48 30 -75 45 -62 35 -87 63 -87 99 0 31 16 67 29 67 5 0 37
-16 71 -35z"/>
<path d="M3580 690 c0 -5 7 -13 16 -18 13 -7 12 -23 -16 -133 -54 -214 -47
-197 -75 -191 -14 2 -25 0 -25 -6 0 -13 159 -52 166 -40 3 5 -3 12 -15 15 -21
5 -21 22 0 79 7 19 146 131 153 123 2 -2 -10 -54 -27 -115 -26 -97 -32 -111
-48 -107 -11 3 -19 0 -19 -5 0 -6 19 -16 43 -22 23 -6 57 -15 76 -20 19 -5 37
-8 39 -5 8 7 -9 25 -24 25 -10 0 -13 6 -10 18 5 17 59 235 70 283 5 22 10 25
31 21 14 -2 25 0 25 6 0 11 -30 21 -117 40 -43 10 -57 1 -27 -16 29 -16 6 -57
-63 -108 -37 -27 -72 -52 -78 -56 -8 -5 -4 28 13 92 22 88 27 100 43 95 11 -4
19 -2 19 4 0 6 -19 15 -42 21 -24 6 -58 15 -75 20 -19 5 -33 5 -33 0z"/>
<path d="M5640 661 c-44 -14 -87 -40 -94 -56 -11 -30 -6 -64 24 -185 36 -142
36 -146 8 -155 -15 -4 -18 -8 -10 -12 20 -8 252 48 273 67 18 14 18 19 4 69
-17 67 -26 75 -72 74 -21 -1 -55 3 -76 8 -32 8 -36 13 -27 25 7 8 21 14 32 14
27 0 74 26 82 45 22 59 -18 116 -81 114 -21 0 -49 -4 -63 -8z"/>
<path d="M3972 588 c-39 -39 11 -131 88 -162 22 -9 40 -17 40 -18 0 -2 -18 -4
-40 -4 -60 -3 -101 -31 -130 -91 -14 -29 -31 -52 -37 -53 -19 0 -16 -18 5 -24
43 -12 122 -17 122 -8 0 6 -5 12 -11 14 -17 6 7 82 37 118 19 22 34 30 58 30
l31 0 -9 -80 c-7 -55 -14 -80 -23 -80 -24 0 -13 -18 15 -24 77 -15 122 -18
122 -7 0 6 -9 11 -20 11 -25 0 -25 2 0 175 11 77 20 146 20 154 0 9 8 11 26 7
19 -5 25 -3 22 6 -3 8 -47 19 -119 30 -140 20 -181 22 -197 6z"/>
<path d="M5340 594 c-8 -1 -36 -6 -63 -9 -51 -7 -56 -25 -6 -25 38 0 38 -21
-1 -138 -18 -54 -30 -111 -30 -141 0 -37 -4 -53 -15 -56 -8 -3 -21 -7 -29 -9
-11 -4 -10 -15 8 -60 11 -31 26 -56 32 -56 6 0 14 17 18 39 3 21 12 44 21 51
8 6 48 17 90 23 89 12 121 2 137 -43 16 -46 38 -38 40 15 1 25 2 53 2 62 1 12
-7 18 -24 18 -30 0 -46 31 -96 179 -35 104 -41 136 -24 136 6 0 10 5 10 10 0
9 -36 12 -70 4z m52 -296 c12 -27 19 -51 16 -54 -3 -3 -35 -6 -70 -7 l-63 -2
1 71 c1 49 8 85 24 120 l22 49 24 -65 c13 -36 34 -86 46 -112z"/>
<path d="M4938 563 c-44 -3 -58 -8 -58 -19 0 -10 8 -14 23 -12 32 4 26 -26
-28 -135 -53 -108 -66 -174 -41 -212 19 -29 59 -33 92 -11 17 12 42 60 71 135
8 22 11 19 31 -36 27 -73 27 -73 2 -73 -11 0 -20 -5 -20 -11 0 -8 18 -10 61
-5 34 3 70 6 80 6 11 0 19 5 19 10 0 6 -8 10 -17 10 -14 0 -32 38 -78 157 -33
86 -62 161 -64 165 -2 5 6 12 18 15 30 8 26 23 -6 21 -16 -1 -54 -3 -85 -5z
m33 -154 c12 -43 11 -50 -19 -113 -27 -57 -35 -67 -54 -64 -21 3 -23 8 -22 59
1 43 9 70 34 118 18 34 37 58 41 54 4 -4 13 -29 20 -54z"/>
</g>
</svg>
